{
DisplayStrings = (
/uniE002
);
customParameters = (
{
name = glyphOrder;
value = (
    ".notdef",
    A,
    B,
    C,
    D,
    E,
    F,
    G,
    H,
    I,
    J,
    K,
    L,
    M,
    N,
    O,
    P,
    Q,
    R,
    S,
    T,
    U,
    V,
    W,
    X,
    Y,
    Z,
    a,
    b,
    c,
    d,
    e,
    f,
    g,
    h,
    i,
    j,
    k,
    l,
    m,
    n,
    o,
    p,
    q,
    r,
    s,
    t,
    u,
    v,
    w,
    x,
    y,
    z,
    space,
    uniE001,
    uniE002,
    uniE003,
    uniE004,
    uniE005,
    uniE006,
    uniE007,
    uniE008,
    uniE009,
    uniE010,
    uniE011,
    uniE012,
    uniE013,
    uniE014,
    uniE015,
    uniE016,
    uniE017,
    uniE018,
    uniE019,
    uniE020
);
}
);
date = "2014-05-07 00:13:02 +0000";
designer = "Agent Evolution";
designerURL = "http://www.agentevolution.com";
familyName = "Real Estate Icons";
fontMaster = (
{
ascender = 800;
capHeight = 700;
customParameters = (
{
name = typoAscender;
value = 800;
},
{
name = typoDescender;
value = "-200";
},
{
name = typoLineGap;
value = 0;
}
);
descender = "-200";
id = "3629EDAB-2B2F-47D4-9515-54A24762C910";
weightValue = 400;
widthValue = 5;
xHeight = 500;
}
);
glyphs = (
{
glyphname = uniE001;
layers = (
{
layerId = "3629EDAB-2B2F-47D4-9515-54A24762C910";
name = Regular;
paths = (
{
closed = 1;
nodes = (
"570 236 LINE",
"570 480 LINE",
"30 480 LINE",
"30 236 LINE",
"80 246 LINE",
"95 297 OFFCURVE",
"142 335 OFFCURVE",
"197 335 CURVE SMOOTH",
"242 335 OFFCURVE",
"279 309 OFFCURVE",
"300 274 CURVE",
"321 309 OFFCURVE",
"362 335 OFFCURVE",
"407 335 CURVE SMOOTH",
"463 335 OFFCURVE",
"505 297 OFFCURVE",
"520 246 CURVE"
);
},
{
closed = 1;
nodes = (
"0 60 LINE",
"0 200 LINE",
"0 200 OFFCURVE",
"116 234 OFFCURVE",
"300 234 CURVE SMOOTH",
"498 234 OFFCURVE",
"600 200 OFFCURVE",
"600 201 CURVE",
"600 60 LINE",
"480 60 LINE",
"480 120 LINE",
"120 120 LINE",
"120 60 LINE"
);
}
);
width = 600;
}
);
unicode = E001;
},
{
glyphname = uniE002;
lastChange = "2014-05-09 23:26:18 -0600";
layers = (
{
layerId = "3629EDAB-2B2F-47D4-9515-54A24762C910";
name = Regular;
paths = (
{
closed = 1;
nodes = (
"105 720 LINE SMOOTH",
"80 720 OFFCURVE",
"60 698 OFFCURVE",
"60 674 CURVE SMOOTH",
"60 44 LINE SMOOTH",
"60 19 OFFCURVE",
"79 0 OFFCURVE",
"104 0 CURVE SMOOTH",
"256 0 LINE",
"256 220 LINE",
"343 220 LINE",
"343 0 LINE",
"497 0 LINE SMOOTH",
"522 0 OFFCURVE",
"540 19 OFFCURVE",
"540 44 CURVE SMOOTH",
"540 674 LINE SMOOTH",
"540 698 OFFCURVE",
"522 720 OFFCURVE",
"497 720 CURVE SMOOTH"
);
},
{
closed = 1;
nodes = (
"208 620 LINE",
"208 500 LINE",
"120 500 LINE",
"120 620 LINE"
);
},
{
closed = 1;
nodes = (
"343 620 LINE",
"343 500 LINE",
"256 500 LINE",
"256 620 LINE"
);
},
{
closed = 1;
nodes = (
"480 620 LINE",
"480 500 LINE",
"393 500 LINE",
"393 620 LINE"
);
},
{
closed = 1;
nodes = (
"208 420 LINE",
"208 302 LINE",
"120 302 LINE",
"120 420 LINE"
);
},
{
closed = 1;
nodes = (
"343 420 LINE",
"343 302 LINE",
"256 302 LINE",
"256 420 LINE"
);
},
{
closed = 1;
nodes = (
"480 420 LINE",
"480 302 LINE",
"393 302 LINE",
"393 420 LINE"
);
},
{
closed = 1;
nodes = (
"208 220 LINE",
"208 97 LINE",
"120 97 LINE",
"120 220 LINE"
);
},
{
closed = 1;
nodes = (
"480 220 LINE",
"480 97 LINE",
"393 97 LINE",
"393 220 LINE"
);
}
);
width = 600;
}
);
unicode = E002;
},
{
glyphname = uniE003;
layers = (
{
layerId = "3629EDAB-2B2F-47D4-9515-54A24762C910";
name = Regular;
paths = (
{
closed = 1;
nodes = (
"600 405 LINE SMOOTH",
"600 319 OFFCURVE",
"529 262 OFFCURVE",
"444 262 CURVE SMOOTH",
"429 262 LINE",
"330 30 LINE",
"330 262 LINE",
"143 262 LINE SMOOTH",
"72 262 OFFCURVE",
"0 319 OFFCURVE",
"0 405 CURVE SMOOTH",
"0 531 LINE SMOOTH",
"0 618 OFFCURVE",
"72 690 OFFCURVE",
"158 690 CURVE SMOOTH",
"442 690 LINE SMOOTH",
"527 690 OFFCURVE",
"600 618 OFFCURVE",
"600 531 CURVE SMOOTH"
);
}
);
width = 600;
}
);
unicode = E003;
},
{
glyphname = uniE004;
layers = (
{
layerId = "3629EDAB-2B2F-47D4-9515-54A24762C910";
name = Regular;
paths = (
{
closed = 1;
nodes = (
"185 240 LINE",
"240 186 LINE",
"286 234 LINE",
"319 211 OFFCURVE",
"357 200 OFFCURVE",
"399 200 CURVE SMOOTH",
"510 200 OFFCURVE",
"599 289 OFFCURVE",
"599 400 CURVE SMOOTH",
"599 511 OFFCURVE",
"510 599 OFFCURVE",
"399 599 CURVE SMOOTH",
"288 599 OFFCURVE",
"199 511 OFFCURVE",
"199 400 CURVE SMOOTH",
"199 358 OFFCURVE",
"213 319 OFFCURVE",
"235 287 CURVE"
);
},
{
closed = 1;
nodes = (
"317 250 OFFCURVE",
"250 318 OFFCURVE",
"250 400 CURVE SMOOTH",
"250 482 OFFCURVE",
"317 549 OFFCURVE",
"399 549 CURVE SMOOTH",
"484 549 OFFCURVE",
"549 482 OFFCURVE",
"549 400 CURVE SMOOTH",
"549 318 OFFCURVE",
"484 250 OFFCURVE",
"399 250 CURVE SMOOTH"
);
},
{
closed = 1;
nodes = (
"248 178 LINE",
"72 1 LINE",
"1 72 LINE",
"177 248 LINE"
);
}
);
width = 600;
}
);
unicode = E004;
},
{
glyphname = uniE005;
layers = (
{
layerId = "3629EDAB-2B2F-47D4-9515-54A24762C910";
name = Regular;
paths = (
{
closed = 1;
nodes = (
"490 370 LINE",
"600 240 LINE",
"480 240 LINE",
"480 0 LINE",
"360 0 LINE",
"360 180 LINE",
"240 180 LINE",
"240 0 LINE",
"120 0 LINE",
"120 240 LINE",
"0 240 LINE",
"310 540 LINE",
"370 476 LINE",
"370 540 LINE",
"490 540 LINE"
);
}
);
width = 600;
}
);
unicode = E005;
},
{
glyphname = uniE006;
layers = (
{
layerId = "3629EDAB-2B2F-47D4-9515-54A24762C910";
name = Regular;
paths = (
{
closed = 1;
nodes = (
"173 699 OFFCURVE",
"85 599 OFFCURVE",
"85 481 CURVE SMOOTH",
"85 342 OFFCURVE",
"306 0 OFFCURVE",
"306 0 CURVE SMOOTH",
"306 0 OFFCURVE",
"525 342 OFFCURVE",
"525 481 CURVE SMOOTH",
"525 599 OFFCURVE",
"439 699 OFFCURVE",
"306 700 CURVE SMOOTH"
);
},
{
closed = 1;
nodes = (
"440 460 LINE",
"394 460 LINE",
"394 320 LINE",
"325 320 LINE",
"325 418 LINE",
"277 418 LINE",
"277 320 LINE",
"210 320 LINE",
"210 460 LINE",
"161 460 LINE",
"303 593 LINE",
"337 555 LINE",
"337 595 LINE",
"381 595 LINE",
"381 518 LINE"
);
}
);
width = 600;
}
);
unicode = E006;
},
{
glyphname = uniE007;
layers = (
{
layerId = "3629EDAB-2B2F-47D4-9515-54A24762C910";
name = Regular;
paths = (
{
closed = 1;
nodes = (
"137 720 LINE SMOOTH",
"109 720 OFFCURVE",
"90 699 OFFCURVE",
"90 674 CURVE SMOOTH",
"90 46 LINE SMOOTH",
"90 24 OFFCURVE",
"109 0 OFFCURVE",
"137 0 CURVE SMOOTH",
"461 0 LINE SMOOTH",
"488 0 OFFCURVE",
"510 24 OFFCURVE",
"510 46 CURVE SMOOTH",
"510 674 LINE SMOOTH",
"510 699 OFFCURVE",
"488 720 OFFCURVE",
"461 720 CURVE SMOOTH"
);
},
{
closed = 1;
nodes = (
"307 674 OFFCURVE",
"343 675 OFFCURVE",
"343 664 CURVE SMOOTH",
"343 652 OFFCURVE",
"307 652 OFFCURVE",
"299 652 CURVE SMOOTH",
"290 652 OFFCURVE",
"256 652 OFFCURVE",
"256 664 CURVE SMOOTH",
"256 675 OFFCURVE",
"290 674 OFFCURVE",
"299 674 CURVE SMOOTH"
);
},
{
closed = 1;
nodes = (
"469 120 LINE",
"131 120 LINE",
"131 620 LINE",
"469 620 LINE"
);
},
{
closed = 1;
nodes = (
"267 30 OFFCURVE",
"267 75 OFFCURVE",
"298 75 CURVE SMOOTH",
"328 75 OFFCURVE",
"328 30 OFFCURVE",
"298 30 CURVE SMOOTH"
);
}
);
width = 600;
}
);
unicode = E007;
},
{
glyphname = uniE008;
layers = (
{
layerId = "3629EDAB-2B2F-47D4-9515-54A24762C910";
name = Regular;
paths = (
{
closed = 1;
nodes = (
"319 186 LINE",
"341 199 LINE",
"341 199 OFFCURVE",
"354 187 OFFCURVE",
"353 181 CURVE",
"352 173 OFFCURVE",
"348 161 OFFCURVE",
"350 159 CURVE SMOOTH",
"354 155 LINE",
"385 129 LINE",
"418 135 LINE",
"435 121 LINE",
"435 83 LINE",
"463 58 LINE",
"493 56 LINE",
"507 43 LINE",
"510 16 LINE",
"523 4 LINE",
"526 1 OFFCURVE",
"540 0 OFFCURVE",
"560 0 CURVE SMOOTH",
"605 0 OFFCURVE",
"599 9 OFFCURVE",
"600 13 CURVE",
"592 78 LINE",
"592 78 OFFCURVE",
"371 270 OFFCURVE",
"372 271 CURVE",
"374 272 OFFCURVE",
"386 287 OFFCURVE",
"386 289 CURVE",
"385 292 OFFCURVE",
"361 290 OFFCURVE",
"344 310 CURVE",
"337 316 OFFCURVE",
"336 324 OFFCURVE",
"336 329 CURVE",
"350 387 OFFCURVE",
"336 451 OFFCURVE",
"291 496 CURVE SMOOTH",
"224 562 OFFCURVE",
"116 562 OFFCURVE",
"50 496 CURVE SMOOTH",
"-17 429 OFFCURVE",
"-17 320 OFFCURVE",
"50 254 CURVE SMOOTH",
"102 201 OFFCURVE",
"184 189 OFFCURVE",
"248 223 CURVE",
"254 218 OFFCURVE",
"263 204 OFFCURVE",
"265 197 CURVE SMOOTH",
"268 187 OFFCURVE",
"277 173 OFFCURVE",
"283 173 CURVE",
"290 172 OFFCURVE",
"301 190 OFFCURVE",
"301 190 CURVE"
);
},
{
closed = 1;
nodes = (
"118 398 OFFCURVE",
"95 398 OFFCURVE",
"83 412 CURVE",
"68 426 OFFCURVE",
"68 448 OFFCURVE",
"83 462 CURVE",
"95 475 OFFCURVE",
"118 475 OFFCURVE",
"133 462 CURVE",
"145 448 OFFCURVE",
"145 426 OFFCURVE",
"133 412 CURVE"
);
}
);
width = 600;
}
);
unicode = E008;
},
{
glyphname = uniE009;
layers = (
{
layerId = "3629EDAB-2B2F-47D4-9515-54A24762C910";
name = Regular;
paths = (
{
closed = 1;
nodes = (
"600 60 LINE",
"600 30 LINE",
"0 30 LINE",
"0 570 LINE",
"30 570 LINE",
"30 60 LINE"
);
},
{
closed = 1;
nodes = (
"499 487 LINE SMOOTH",
"498 493 OFFCURVE",
"491 496 OFFCURVE",
"486 494 CURVE",
"406 471 LINE",
"401 469 OFFCURVE",
"395 463 OFFCURVE",
"397 458 CURVE SMOOTH",
"402 446 LINE",
"403 441 OFFCURVE",
"409 437 OFFCURVE",
"416 439 CURVE SMOOTH",
"441 446 LINE",
"331 273 LINE",
"327 268 OFFCURVE",
"320 267 OFFCURVE",
"316 272 CURVE",
"221 353 LINE SMOOTH",
"216 357 OFFCURVE",
"209 355 OFFCURVE",
"204 351 CURVE",
"79 191 LINE SMOOTH",
"75 186 OFFCURVE",
"75 178 OFFCURVE",
"80 174 CURVE SMOOTH",
"90 166 LINE SMOOTH",
"96 161 OFFCURVE",
"102 164 OFFCURVE",
"107 170 CURVE SMOOTH",
"213 302 LINE SMOOTH",
"217 307 OFFCURVE",
"221 307 OFFCURVE",
"225 304 CURVE",
"322 219 LINE",
"329 214 OFFCURVE",
"334 215 OFFCURVE",
"338 222 CURVE",
"473 430 LINE",
"476 403 LINE",
"477 398 OFFCURVE",
"484 394 OFFCURVE",
"490 395 CURVE SMOOTH",
"502 397 LINE SMOOTH",
"507 398 OFFCURVE",
"512 403 OFFCURVE",
"511 410 CURVE SMOOTH"
);
}
);
width = 600;
}
);
unicode = E009;
},
{
glyphname = uniE010;
layers = (
{
layerId = "3629EDAB-2B2F-47D4-9515-54A24762C910";
name = Regular;
paths = (
{
closed = 1;
nodes = (
"294 291 LINE",
"559 480 LINE",
"41 480 LINE"
);
},
{
closed = 1;
nodes = (
"391 310 LINE",
"600 139 LINE",
"600 463 LINE"
);
},
{
closed = 1;
nodes = (
"201 310 LINE",
"0 461 LINE",
"0 139 LINE"
);
},
{
closed = 1;
nodes = (
"354 287 LINE",
"294 237 LINE",
"234 287 LINE",
"28 120 LINE",
"563 120 LINE"
);
}
);
width = 600;
}
);
unicode = E010;
},
{
glyphname = uniE011;
layers = (
{
layerId = "3629EDAB-2B2F-47D4-9515-54A24762C910";
name = Regular;
paths = (
{
closed = 1;
nodes = (
"240 510 LINE",
"320 510 LINE",
"320 440 LINE",
"360 440 LINE",
"360 560 LINE",
"240 560 LINE"
);
},
{
closed = 1;
nodes = (
"480 180 LINE",
"600 340 LINE",
"585 340 LINE",
"480 206 LINE",
"480 420 LINE",
"0 420 LINE",
"0 180 LINE"
);
},
{
closed = 1;
nodes = (
"300 160 LINE",
"240 160 LINE",
"240 80 LINE",
"300 80 LINE"
);
}
);
width = 600;
}
);
unicode = E011;
},
{
glyphname = uniE012;
layers = (
{
layerId = "3629EDAB-2B2F-47D4-9515-54A24762C910";
name = Regular;
paths = (
{
closed = 1;
nodes = (
"136 662 LINE",
"262 514 LINE",
"218 475 LINE",
"91 622 LINE"
);
},
{
closed = 1;
nodes = (
"528 50 LINE",
"400 199 LINE",
"400 199 OFFCURVE",
"328 154 OFFCURVE",
"229 274 CURVE",
"228 274 LINE",
"130 391 OFFCURVE",
"188 452 OFFCURVE",
"188 452 CURVE",
"59 600 LINE",
"32 576 LINE",
"32 576 OFFCURVE",
"-32 531 OFFCURVE",
"19 423 CURVE SMOOTH",
"72 312 OFFCURVE",
"156 210 OFFCURVE",
"156 210 CURVE SMOOTH",
"156 210 OFFCURVE",
"243 110 OFFCURVE",
"342 39 CURVE",
"442 -27 OFFCURVE",
"495 25 OFFCURVE",
"495 25 CURVE"
);
},
{
closed = 1;
nodes = (
"475 258 LINE",
"600 110 LINE",
"555 70 LINE",
"429 221 LINE"
);
}
);
width = 600;
}
);
unicode = E012;
},
{
glyphname = uniE013;
layers = (
{
layerId = "3629EDAB-2B2F-47D4-9515-54A24762C910";
name = Regular;
paths = (
{
closed = 1;
nodes = (
"338 370 LINE",
"600 499 LINE",
"551 597 OFFCURVE",
"456 667 OFFCURVE",
"338 669 CURVE"
);
},
{
closed = 1;
nodes = (
"297 301 LINE",
"297 587 LINE",
"135 587 OFFCURVE",
"0 456 OFFCURVE",
"0 293 CURVE SMOOTH",
"0 129 OFFCURVE",
"135 -1 OFFCURVE",
"297 -1 CURVE SMOOTH",
"386 -1 OFFCURVE",
"467 41 OFFCURVE",
"521 102 CURVE SMOOTH",
"565 154 OFFCURVE",
"594 222 OFFCURVE",
"594 295 CURVE SMOOTH",
"594 345 OFFCURVE",
"580 390 OFFCURVE",
"557 432 CURVE"
);
}
);
width = 600;
}
);
unicode = E013;
},
{
glyphname = uniE014;
layers = (
{
layerId = "3629EDAB-2B2F-47D4-9515-54A24762C910";
name = Regular;
paths = (
{
closed = 1;
nodes = (
"169 696 OFFCURVE",
"84 596 OFFCURVE",
"84 481 CURVE SMOOTH",
"84 345 OFFCURVE",
"300 5 OFFCURVE",
"300 5 CURVE SMOOTH",
"300 5 OFFCURVE",
"516 345 OFFCURVE",
"516 481 CURVE SMOOTH",
"516 596 OFFCURVE",
"432 696 OFFCURVE",
"300 698 CURVE SMOOTH"
);
},
{
closed = 1;
nodes = (
"241 389 OFFCURVE",
"193 436 OFFCURVE",
"193 495 CURVE SMOOTH",
"193 553 OFFCURVE",
"241 601 OFFCURVE",
"300 601 CURVE SMOOTH",
"358 601 OFFCURVE",
"408 553 OFFCURVE",
"408 495 CURVE SMOOTH",
"408 436 OFFCURVE",
"358 389 OFFCURVE",
"300 389 CURVE SMOOTH"
);
}
);
width = 600;
}
);
unicode = E014;
},
{
glyphname = uniE015;
layers = (
{
layerId = "3629EDAB-2B2F-47D4-9515-54A24762C910";
name = Regular;
paths = (
{
closed = 1;
nodes = (
"133 602 OFFCURVE",
"0 463 OFFCURVE",
"0 301 CURVE SMOOTH",
"0 135 OFFCURVE",
"133 4 OFFCURVE",
"298 4 CURVE SMOOTH",
"464 4 OFFCURVE",
"600 135 OFFCURVE",
"600 301 CURVE SMOOTH",
"600 463 OFFCURVE",
"464 602 OFFCURVE",
"298 602 CURVE SMOOTH"
);
},
{
closed = 1;
nodes = (
"263 200 LINE",
"263 218 OFFCURVE",
"264 256 OFFCURVE",
"273 271 CURVE",
"296 319 OFFCURVE",
"342 331 OFFCURVE",
"365 364 CURVE SMOOTH",
"371 373 OFFCURVE",
"373 383 OFFCURVE",
"373 395 CURVE SMOOTH",
"373 431 OFFCURVE",
"343 451 OFFCURVE",
"300 451 CURVE SMOOTH",
"258 451 OFFCURVE",
"235 431 OFFCURVE",
"224 381 CURVE",
"150 381 LINE",
"155 464 OFFCURVE",
"205 513 OFFCURVE",
"298 513 CURVE SMOOTH",
"378 513 OFFCURVE",
"449 467 OFFCURVE",
"449 392 CURVE SMOOTH",
"449 355 OFFCURVE",
"423 316 OFFCURVE",
"373 278 CURVE SMOOTH",
"353 263 OFFCURVE",
"342 247 OFFCURVE",
"340 239 CURVE SMOOTH",
"334 217 OFFCURVE",
"334 211 OFFCURVE",
"335 200 CURVE"
);
},
{
closed = 1;
nodes = (
"337 150 LINE",
"337 89 LINE",
"263 89 LINE",
"263 150 LINE"
);
}
);
width = 600;
}
);
unicode = E015;
},
{
glyphname = uniE016;
layers = (
{
layerId = "3629EDAB-2B2F-47D4-9515-54A24762C910";
name = Regular;
paths = (
{
closed = 1;
nodes = (
"0 613 LINE",
"0 527 LINE",
"71 456 LINE",
"71 456 OFFCURVE",
"80 490 OFFCURVE",
"104 510 CURVE",
"121 529 OFFCURVE",
"155 540 OFFCURVE",
"155 540 CURVE",
"85 613 LINE"
);
},
{
closed = 1;
nodes = (
"304 515 LINE",
"304 515 OFFCURVE",
"202 548 OFFCURVE",
"130 490 CURVE",
"62 430 OFFCURVE",
"79 321 OFFCURVE",
"79 321 CURVE"
);
},
{
closed = 1;
nodes = (
"371 485 LINE",
"97 249 LINE",
"71 281 LINE",
"343 514 LINE"
);
},
{
closed = 1;
nodes = (
"363 390 LINE",
"375 381 OFFCURVE",
"389 381 OFFCURVE",
"394 388 CURVE",
"398 396 OFFCURVE",
"393 410 OFFCURVE",
"382 419 CURVE SMOOTH",
"369 429 LINE SMOOTH",
"358 437 OFFCURVE",
"343 438 OFFCURVE",
"338 430 CURVE",
"332 422 OFFCURVE",
"340 408 OFFCURVE",
"352 400 CURVE"
);
},
{
closed = 1;
nodes = (
"465 324 LINE SMOOTH",
"477 315 OFFCURVE",
"491 314 OFFCURVE",
"496 322 CURVE SMOOTH",
"501 330 OFFCURVE",
"494 342 OFFCURVE",
"482 352 CURVE SMOOTH",
"463 367 LINE SMOOTH",
"452 376 OFFCURVE",
"437 377 OFFCURVE",
"432 369 CURVE SMOOTH",
"426 360 OFFCURVE",
"432 349 OFFCURVE",
"444 340 CURVE SMOOTH"
);
},
{
closed = 1;
nodes = (
"305 318 LINE",
"315 308 OFFCURVE",
"329 305 OFFCURVE",
"335 313 CURVE SMOOTH",
"341 321 OFFCURVE",
"338 332 OFFCURVE",
"328 343 CURVE",
"315 356 LINE",
"305 365 OFFCURVE",
"294 367 OFFCURVE",
"286 359 CURVE",
"278 350 OFFCURVE",
"283 339 OFFCURVE",
"294 328 CURVE"
);
},
{
closed = 1;
nodes = (
"242 269 LINE SMOOTH",
"250 255 OFFCURVE",
"261 252 OFFCURVE",
"270 257 CURVE SMOOTH",
"280 263 OFFCURVE",
"277 277 OFFCURVE",
"269 289 CURVE",
"261 303 LINE SMOOTH",
"254 315 OFFCURVE",
"243 320 OFFCURVE",
"234 315 CURVE SMOOTH",
"224 309 OFFCURVE",
"226 295 OFFCURVE",
"234 283 CURVE"
);
},
{
closed = 1;
nodes = (
"567 255 LINE",
"578 248 OFFCURVE",
"591 247 OFFCURVE",
"596 255 CURVE SMOOTH",
"602 264 OFFCURVE",
"596 277 OFFCURVE",
"585 285 CURVE SMOOTH",
"563 302 LINE",
"551 310 OFFCURVE",
"538 313 OFFCURVE",
"532 303 CURVE SMOOTH",
"526 293 OFFCURVE",
"532 282 OFFCURVE",
"545 272 CURVE SMOOTH"
);
},
{
closed = 1;
nodes = (
"396 237 LINE",
"407 228 OFFCURVE",
"420 224 OFFCURVE",
"426 231 CURVE",
"433 237 OFFCURVE",
"428 252 OFFCURVE",
"419 264 CURVE",
"400 282 LINE SMOOTH",
"389 293 OFFCURVE",
"375 293 OFFCURVE",
"370 286 CURVE SMOOTH",
"364 278 OFFCURVE",
"368 265 OFFCURVE",
"378 255 CURVE SMOOTH"
);
},
{
closed = 1;
nodes = (
"159 228 LINE",
"164 215 OFFCURVE",
"177 207 OFFCURVE",
"186 212 CURVE SMOOTH",
"195 217 OFFCURVE",
"196 230 OFFCURVE",
"190 243 CURVE",
"182 258 LINE",
"176 271 OFFCURVE",
"164 279 OFFCURVE",
"156 274 CURVE SMOOTH",
"148 269 OFFCURVE",
"146 255 OFFCURVE",
"153 241 CURVE SMOOTH"
);
},
{
closed = 1;
nodes = (
"311 169 LINE",
"319 157 OFFCURVE",
"330 151 OFFCURVE",
"338 156 CURVE SMOOTH",
"346 161 OFFCURVE",
"346 176 OFFCURVE",
"338 190 CURVE",
"325 211 LINE SMOOTH",
"317 224 OFFCURVE",
"306 230 OFFCURVE",
"297 224 CURVE",
"286 216 OFFCURVE",
"289 204 OFFCURVE",
"298 191 CURVE"
);
},
{
closed = 1;
nodes = (
"487 157 LINE SMOOTH",
"497 147 OFFCURVE",
"511 144 OFFCURVE",
"517 151 CURVE",
"523 159 OFFCURVE",
"520 173 OFFCURVE",
"509 182 CURVE",
"491 200 LINE",
"481 211 OFFCURVE",
"468 213 OFFCURVE",
"462 206 CURVE",
"455 197 OFFCURVE",
"458 186 OFFCURVE",
"469 175 CURVE SMOOTH"
);
},
{
closed = 1;
nodes = (
"213 118 LINE SMOOTH",
"218 105 OFFCURVE",
"231 98 OFFCURVE",
"239 102 CURVE",
"248 106 OFFCURVE",
"249 120 OFFCURVE",
"243 135 CURVE SMOOTH",
"233 159 LINE SMOOTH",
"227 173 OFFCURVE",
"216 179 OFFCURVE",
"208 175 CURVE SMOOTH",
"198 170 OFFCURVE",
"197 156 OFFCURVE",
"202 144 CURVE SMOOTH"
);
},
{
closed = 1;
nodes = (
"380 69 LINE SMOOTH",
"387 56 OFFCURVE",
"400 52 OFFCURVE",
"408 57 CURVE SMOOTH",
"416 62 OFFCURVE",
"416 77 OFFCURVE",
"408 89 CURVE",
"394 112 LINE",
"386 124 OFFCURVE",
"375 129 OFFCURVE",
"367 125 CURVE SMOOTH",
"359 121 OFFCURVE",
"360 105 OFFCURVE",
"367 93 CURVE SMOOTH"
);
},
{
closed = 1;
nodes = (
"266 16 LINE SMOOTH",
"272 4 OFFCURVE",
"282 -3 OFFCURVE",
"291 1 CURVE SMOOTH",
"298 4 OFFCURVE",
"303 13 OFFCURVE",
"297 26 CURVE SMOOTH",
"286 50 LINE",
"279 63 OFFCURVE",
"270 72 OFFCURVE",
"260 67 CURVE SMOOTH",
"250 62 OFFCURVE",
"250 48 OFFCURVE",
"257 34 CURVE SMOOTH"
);
}
);
width = 600;
}
);
unicode = E016;
},
{
glyphname = uniE017;
layers = (
{
layerId = "3629EDAB-2B2F-47D4-9515-54A24762C910";
name = Regular;
paths = (
{
closed = 1;
nodes = (
"604 428 LINE",
"430 603 LINE",
"394 568 LINE",
"413 549 LINE",
"275 412 LINE",
"275 412 OFFCURVE",
"184 428 OFFCURVE",
"147 378 CURVE",
"245 279 LINE",
"42 78 LINE",
"3 2 LINE",
"77 42 LINE",
"280 244 LINE",
"379 147 LINE",
"429 183 OFFCURVE",
"411 275 OFFCURVE",
"411 275 CURVE",
"550 413 LINE",
"570 393 LINE"
);
}
);
width = 600;
}
);
unicode = E017;
},
{
glyphname = uniE018;
layers = (
{
layerId = "3629EDAB-2B2F-47D4-9515-54A24762C910";
name = Regular;
paths = (
{
closed = 1;
nodes = (
"600 0 LINE",
"600 20 LINE",
"576 20 LINE",
"576 360 LINE",
"472 360 LINE",
"472 20 LINE",
"427 20 LINE",
"427 480 LINE",
"324 480 LINE",
"324 20 LINE",
"278 20 LINE",
"278 300 LINE",
"172 300 LINE",
"172 20 LINE",
"126 20 LINE",
"126 180 LINE",
"28 180 LINE",
"28 20 LINE",
"0 20 LINE",
"0 0 LINE"
);
}
);
width = 600;
}
);
unicode = E018;
},
{
glyphname = uniE019;
layers = (
{
layerId = "3629EDAB-2B2F-47D4-9515-54A24762C910";
name = Regular;
paths = (
{
closed = 1;
nodes = (
"560 411 LINE",
"600 411 LINE",
"600 485 LINE",
"298 690 LINE",
"0 485 LINE",
"0 411 LINE",
"39 411 LINE",
"39 175 LINE",
"560 175 LINE"
);
},
{
closed = 1;
nodes = (
"300 580 LINE",
"496 454 LINE",
"496 248 LINE",
"104 248 LINE",
"104 454 LINE"
);
},
{
closed = 1;
nodes = (
"198 396 LINE",
"198 456 LINE",
"402 456 LINE",
"402 396 LINE"
);
},
{
closed = 1;
nodes = (
"198 304 LINE",
"198 364 LINE",
"402 364 LINE",
"402 304 LINE"
);
},
{
closed = 1;
nodes = (
"124 99 LINE",
"115 105 LINE",
"112 103 OFFCURVE",
"108 103 OFFCURVE",
"104 103 CURVE SMOOTH",
"96 103 OFFCURVE",
"88 106 OFFCURVE",
"84 114 CURVE SMOOTH",
"82 118 OFFCURVE",
"81 122 OFFCURVE",
"81 126 CURVE SMOOTH",
"81 130 OFFCURVE",
"82 136 OFFCURVE",
"84 139 CURVE",
"89 148 OFFCURVE",
"95 150 OFFCURVE",
"104 150 CURVE SMOOTH",
"113 150 OFFCURVE",
"119 146 OFFCURVE",
"123 138 CURVE",
"124 135 OFFCURVE",
"125 130 OFFCURVE",
"125 126 CURVE SMOOTH",
"125 122 OFFCURVE",
"125 119 OFFCURVE",
"124 116 CURVE SMOOTH",
"123 113 OFFCURVE",
"121 111 OFFCURVE",
"119 108 CURVE",
"121 106 OFFCURVE",
"124 105 OFFCURVE",
"127 104 CURVE"
);
},
{
closed = 1;
nodes = (
"316 137 OFFCURVE",
"322 150 OFFCURVE",
"338 150 CURVE SMOOTH",
"355 150 OFFCURVE",
"359 137 OFFCURVE",
"359 126 CURVE SMOOTH",
"359 114 OFFCURVE",
"353 103 OFFCURVE",
"338 103 CURVE SMOOTH",
"324 103 OFFCURVE",
"316 114 OFFCURVE",
"316 126 CURVE SMOOTH"
);
},
{
closed = 1;
nodes = (
"416 119 LINE",
"416 116 OFFCURVE",
"423 108 OFFCURVE",
"431 108 CURVE SMOOTH",
"435 108 OFFCURVE",
"442 111 OFFCURVE",
"442 116 CURVE SMOOTH",
"442 120 OFFCURVE",
"440 121 OFFCURVE",
"436 122 CURVE SMOOTH",
"425 125 OFFCURVE",
"412 130 OFFCURVE",
"412 137 CURVE SMOOTH",
"412 147 OFFCURVE",
"420 150 OFFCURVE",
"428 150 CURVE",
"428 150 OFFCURVE",
"446 150 OFFCURVE",
"446 135 CURVE",
"440 135 LINE",
"440 140 OFFCURVE",
"433 144 OFFCURVE",
"428 144 CURVE SMOOTH",
"424 144 OFFCURVE",
"419 142 OFFCURVE",
"419 137 CURVE SMOOTH",
"419 131 OFFCURVE",
"436 129 OFFCURVE",
"440 127 CURVE SMOOTH",
"442 126 OFFCURVE",
"448 123 OFFCURVE",
"448 116 CURVE SMOOTH",
"448 109 OFFCURVE",
"443 103 OFFCURVE",
"431 103 CURVE SMOOTH",
"424 103 OFFCURVE",
"411 107 OFFCURVE",
"411 118 CURVE"
);
},
{
closed = 1;
nodes = (
"553 121 LINE",
"539 121 LINE",
"539 126 LINE",
"559 126 LINE",
"559 110 LINE",
"555 106 OFFCURVE",
"549 102 OFFCURVE",
"540 102 CURVE SMOOTH",
"535 102 OFFCURVE",
"525 104 OFFCURVE",
"520 114 CURVE SMOOTH",
"518 118 OFFCURVE",
"518 122 OFFCURVE",
"518 126 CURVE SMOOTH",
"518 135 OFFCURVE",
"522 150 OFFCURVE",
"540 150 CURVE SMOOTH",
"553 150 OFFCURVE",
"559 143 OFFCURVE",
"559 134 CURVE",
"553 134 LINE",
"553 143 OFFCURVE",
"543 145 OFFCURVE",
"540 145 CURVE SMOOTH",
"530 145 OFFCURVE",
"524 138 OFFCURVE",
"524 126 CURVE SMOOTH",
"524 122 OFFCURVE",
"525 119 OFFCURVE",
"526 116 CURVE",
"528 112 OFFCURVE",
"535 108 OFFCURVE",
"540 108 CURVE",
"540 108 OFFCURVE",
"551 108 OFFCURVE",
"553 112 CURVE"
);
},
{
closed = 1;
nodes = (
"49 108 LINE",
"76 108 LINE",
"76 103 LINE",
"42 103 LINE",
"42 149 LINE",
"74 149 LINE",
"74 143 LINE",
"49 143 LINE",
"49 130 LINE",
"73 130 LINE",
"73 124 LINE",
"49 124 LINE"
);
},
{
closed = 1;
nodes = (
"163 149 LINE",
"169 149 LINE",
"169 122 LINE SMOOTH",
"169 109 OFFCURVE",
"164 103 OFFCURVE",
"151 103 CURVE SMOOTH",
"138 103 OFFCURVE",
"134 106 OFFCURVE",
"134 122 CURVE SMOOTH",
"134 149 LINE",
"140 149 LINE",
"140 122 LINE SMOOTH",
"140 113 OFFCURVE",
"143 109 OFFCURVE",
"151 109 CURVE SMOOTH",
"160 109 OFFCURVE",
"163 113 OFFCURVE",
"163 122 CURVE SMOOTH"
);
},
{
closed = 1;
nodes = (
"205 117 LINE",
"186 117 LINE",
"181 103 LINE",
"175 103 LINE",
"192 149 LINE",
"198 149 LINE",
"218 103 LINE",
"210 103 LINE"
);
},
{
closed = 1;
nodes = (
"227 108 LINE",
"249 108 LINE",
"249 103 LINE",
"222 103 LINE",
"222 149 LINE",
"227 149 LINE"
);
},
{
closed = 1;
nodes = (
"302 125 LINE",
"278 125 LINE",
"278 103 LINE",
"272 103 LINE",
"272 149 LINE",
"278 149 LINE",
"278 130 LINE",
"302 130 LINE",
"302 149 LINE",
"307 149 LINE",
"307 103 LINE",
"302 103 LINE"
);
},
{
closed = 1;
nodes = (
"397 149 LINE",
"403 149 LINE",
"403 122 LINE SMOOTH",
"403 104 OFFCURVE",
"392 103 OFFCURVE",
"385 103 CURVE SMOOTH",
"378 103 OFFCURVE",
"367 104 OFFCURVE",
"367 122 CURVE SMOOTH",
"367 149 LINE",
"374 149 LINE",
"374 122 LINE SMOOTH",
"374 119 OFFCURVE",
"374 108 OFFCURVE",
"385 108 CURVE SMOOTH",
"396 108 OFFCURVE",
"397 119 OFFCURVE",
"397 122 CURVE SMOOTH"
);
},
{
closed = 1;
nodes = (
"456 149 LINE",
"462 149 LINE",
"462 103 LINE",
"456 103 LINE"
);
},
{
closed = 1;
nodes = (
"502 103 LINE",
"479 139 LINE",
"479 103 LINE",
"473 103 LINE",
"473 149 LINE",
"479 149 LINE",
"502 113 LINE",
"502 149 LINE",
"509 149 LINE",
"509 103 LINE"
);
},
{
closed = 1;
nodes = (
"105 116 LINE",
"109 115 OFFCURVE",
"112 114 OFFCURVE",
"114 111 CURVE",
"117 115 OFFCURVE",
"120 119 OFFCURVE",
"120 126 CURVE SMOOTH",
"120 135 OFFCURVE",
"113 145 OFFCURVE",
"103 145 CURVE SMOOTH",
"94 145 OFFCURVE",
"87 136 OFFCURVE",
"87 126 CURVE SMOOTH",
"87 120 OFFCURVE",
"93 108 OFFCURVE",
"104 108 CURVE SMOOTH",
"106 108 OFFCURVE",
"108 108 OFFCURVE",
"110 109 CURVE",
"108 110 OFFCURVE",
"106 111 OFFCURVE",
"104 111 CURVE"
);
},
{
closed = 1;
nodes = (
"195 145 LINE",
"187 122 LINE",
"204 122 LINE"
);
},
{
closed = 1;
nodes = (
"322 120 OFFCURVE",
"327 108 OFFCURVE",
"338 108 CURVE SMOOTH",
"350 108 OFFCURVE",
"354 120 OFFCURVE",
"354 126 CURVE SMOOTH",
"354 138 OFFCURVE",
"346 145 OFFCURVE",
"338 145 CURVE SMOOTH",
"329 145 OFFCURVE",
"322 138 OFFCURVE",
"322 126 CURVE SMOOTH"
);
},
{
closed = 1;
nodes = (
"42 72 OFFCURVE",
"53 84 OFFCURVE",
"67 84 CURVE SMOOTH",
"81 84 OFFCURVE",
"92 75 OFFCURVE",
"92 57 CURVE SMOOTH",
"92 39 OFFCURVE",
"80 30 OFFCURVE",
"67 30 CURVE SMOOTH",
"54 30 OFFCURVE",
"42 40 OFFCURVE",
"42 57 CURVE SMOOTH"
);
},
{
closed = 1;
nodes = (
"196 74 OFFCURVE",
"204 84 OFFCURVE",
"221 84 CURVE SMOOTH",
"236 84 OFFCURVE",
"245 75 OFFCURVE",
"245 57 CURVE SMOOTH",
"245 42 OFFCURVE",
"240 30 OFFCURVE",
"221 30 CURVE SMOOTH",
"205 30 OFFCURVE",
"196 41 OFFCURVE",
"196 57 CURVE SMOOTH"
);
},
{
closed = 1;
nodes = (
"108 31 LINE",
"100 31 LINE",
"100 83 LINE",
"120 83 LINE",
"120 83 OFFCURVE",
"140 82 OFFCURVE",
"140 68 CURVE SMOOTH",
"140 55 OFFCURVE",
"126 52 OFFCURVE",
"108 52 CURVE"
);
},
{
closed = 1;
nodes = (
"157 31 LINE",
"149 31 LINE",
"149 83 LINE",
"170 83 LINE",
"170 83 OFFCURVE",
"189 83 OFFCURVE",
"189 68 CURVE SMOOTH",
"189 55 OFFCURVE",
"178 52 OFFCURVE",
"157 52 CURVE"
);
},
{
closed = 1;
nodes = (
"261 54 LINE",
"261 31 LINE",
"254 31 LINE",
"254 83 LINE",
"277 83 LINE SMOOTH",
"284 83 OFFCURVE",
"296 82 OFFCURVE",
"296 69 CURVE SMOOTH",
"296 60 OFFCURVE",
"290 55 OFFCURVE",
"282 55 CURVE",
"285 54 OFFCURVE",
"290 48 OFFCURVE",
"292 45 CURVE",
"300 31 LINE",
"292 31 LINE",
"285 42 LINE SMOOTH",
"282 47 OFFCURVE",
"278 54 OFFCURVE",
"273 54 CURVE SMOOTH"
);
},
{
closed = 1;
nodes = (
"342 76 LINE",
"326 76 LINE",
"326 31 LINE",
"319 31 LINE",
"319 76 LINE",
"302 76 LINE",
"302 83 LINE",
"342 83 LINE"
);
},
{
closed = 1;
nodes = (
"384 83 LINE",
"391 83 LINE",
"391 53 LINE SMOOTH",
"391 48 OFFCURVE",
"392 30 OFFCURVE",
"370 30 CURVE SMOOTH",
"348 30 OFFCURVE",
"350 48 OFFCURVE",
"350 53 CURVE SMOOTH",
"350 83 LINE",
"357 83 LINE",
"357 53 LINE SMOOTH",
"357 48 OFFCURVE",
"358 37 OFFCURVE",
"370 37 CURVE SMOOTH",
"383 37 OFFCURVE",
"384 48 OFFCURVE",
"384 53 CURVE SMOOTH"
);
},
{
closed = 1;
nodes = (
"436 31 LINE",
"408 72 LINE",
"408 31 LINE",
"402 31 LINE",
"402 83 LINE",
"409 83 LINE",
"436 42 LINE",
"436 83 LINE",
"444 83 LINE",
"444 31 LINE"
);
},
{
closed = 1;
nodes = (
"456 83 LINE",
"463 83 LINE",
"463 31 LINE",
"456 31 LINE"
);
},
{
closed = 1;
nodes = (
"513 76 LINE",
"495 76 LINE",
"495 31 LINE",
"488 31 LINE",
"488 76 LINE",
"471 76 LINE",
"471 83 LINE",
"513 83 LINE"
);
},
{
closed = 1;
nodes = (
"561 83 LINE",
"541 53 LINE",
"541 31 LINE",
"534 31 LINE",
"534 53 LINE",
"514 83 LINE",
"523 83 LINE",
"538 61 LINE",
"553 83 LINE"
);
},
{
closed = 1;
nodes = (
"50 44 OFFCURVE",
"54 37 OFFCURVE",
"67 37 CURVE SMOOTH",
"79 37 OFFCURVE",
"85 44 OFFCURVE",
"85 57 CURVE SMOOTH",
"85 62 OFFCURVE",
"82 78 OFFCURVE",
"67 78 CURVE SMOOTH",
"53 78 OFFCURVE",
"50 64 OFFCURVE",
"50 57 CURVE SMOOTH"
);
},
{
closed = 1;
nodes = (
"203 47 OFFCURVE",
"209 37 OFFCURVE",
"221 37 CURVE SMOOTH",
"233 37 OFFCURVE",
"238 47 OFFCURVE",
"238 57 CURVE SMOOTH",
"238 68 OFFCURVE",
"232 78 OFFCURVE",
"221 78 CURVE SMOOTH",
"209 78 OFFCURVE",
"203 68 OFFCURVE",
"203 57 CURVE SMOOTH"
);
},
{
closed = 1;
nodes = (
"261 77 LINE",
"261 60 LINE",
"277 60 LINE SMOOTH",
"285 60 OFFCURVE",
"288 65 OFFCURVE",
"288 69 CURVE SMOOTH",
"288 73 OFFCURVE",
"285 77 OFFCURVE",
"277 77 CURVE SMOOTH"
);
},
{
closed = 1;
nodes = (
"108 59 LINE",
"121 58 OFFCURVE",
"132 59 OFFCURVE",
"132 68 CURVE SMOOTH",
"132 76 OFFCURVE",
"121 77 OFFCURVE",
"108 76 CURVE"
);
},
{
closed = 1;
nodes = (
"157 59 LINE",
"173 58 OFFCURVE",
"181 60 OFFCURVE",
"181 68 CURVE SMOOTH",
"181 74 OFFCURVE",
"172 77 OFFCURVE",
"157 76 CURVE"
);
}
);
width = 600;
}
);
unicode = E019;
},
{
glyphname = uniE020;
layers = (
{
layerId = "3629EDAB-2B2F-47D4-9515-54A24762C910";
name = Regular;
paths = (
{
closed = 1;
nodes = (
"240 160 LINE",
"80 160 LINE",
"80 600 LINE",
"240 600 LINE"
);
},
{
closed = 1;
nodes = (
"300 377 LINE",
"300 600 LINE",
"359 600 LINE SMOOTH",
"420 600 OFFCURVE",
"480 544 OFFCURVE",
"480 486 CURVE SMOOTH",
"479 430 OFFCURVE",
"418 384 OFFCURVE",
"359 377 CURVE"
);
},
{
closed = 1;
nodes = (
"510 160 LINE",
"300 160 LINE",
"300 377 LINE"
);
},
{
closed = 1;
nodes = (
"600 105 OFFCURVE",
"595 100 OFFCURVE",
"589 100 CURVE SMOOTH",
"583 100 OFFCURVE",
"578 105 OFFCURVE",
"578 111 CURVE SMOOTH",
"578 116 OFFCURVE",
"583 121 OFFCURVE",
"589 121 CURVE SMOOTH",
"595 121 OFFCURVE",
"600 116 OFFCURVE",
"600 111 CURVE SMOOTH"
);
},
{
closed = 1;
nodes = (
"581 105 OFFCURVE",
"585 103 OFFCURVE",
"589 103 CURVE SMOOTH",
"593 103 OFFCURVE",
"597 105 OFFCURVE",
"597 111 CURVE SMOOTH",
"597 115 OFFCURVE",
"593 118 OFFCURVE",
"589 118 CURVE SMOOTH",
"585 118 OFFCURVE",
"581 115 OFFCURVE",
"581 111 CURVE SMOOTH"
);
},
{
closed = 1;
nodes = (
"587 109 LINE",
"587 105 LINE",
"585 105 LINE",
"585 116 LINE",
"587 116 LINE SMOOTH",
"590 116 OFFCURVE",
"593 115 OFFCURVE",
"593 113 CURVE SMOOTH",
"593 112 OFFCURVE",
"592 111 OFFCURVE",
"591 110 CURVE",
"591 110 OFFCURVE",
"594 109 OFFCURVE",
"594 105 CURVE",
"591 105 LINE SMOOTH",
"591 105 OFFCURVE",
"591 109 OFFCURVE",
"589 109 CURVE SMOOTH"
);
},
{
closed = 1;
nodes = (
"587 111 LINE",
"591 111 OFFCURVE",
"591 114 OFFCURVE",
"587 114 CURVE"
);
},
{
closed = 1;
nodes = (
"400 23 OFFCURVE",
"420 0 OFFCURVE",
"446 0 CURVE SMOOTH",
"471 0 OFFCURVE",
"494 21 OFFCURVE",
"494 50 CURVE SMOOTH",
"494 77 OFFCURVE",
"473 97 OFFCURVE",
"446 97 CURVE SMOOTH",
"419 97 OFFCURVE",
"400 76 OFFCURVE",
"400 50 CURVE SMOOTH"
);
},
{
closed = 1;
nodes = (
"0 3 LINE",
"9 3 LINE",
"9 87 LINE",
"24 87 LINE SMOOTH",
"41 87 OFFCURVE",
"50 83 OFFCURVE",
"50 67 CURVE SMOOTH",
"50 56 OFFCURVE",
"43 47 OFFCURVE",
"22 47 CURVE",
"49 3 LINE",
"59 3 LINE",
"36 39 LINE",
"49 42 OFFCURVE",
"59 52 OFFCURVE",
"59 67 CURVE SMOOTH",
"59 84 OFFCURVE",
"47 95 OFFCURVE",
"26 95 CURVE SMOOTH",
"0 95 LINE"
);
},
{
closed = 1;
nodes = (
"141 45 LINE",
"141 54 LINE",
"103 54 LINE",
"103 86 LINE",
"141 86 LINE",
"141 95 LINE",
"92 95 LINE",
"92 3 LINE",
"141 3 LINE",
"141 12 LINE",
"103 12 LINE",
"103 45 LINE"
);
},
{
closed = 1;
nodes = (
"201 95 LINE",
"166 3 LINE",
"176 3 LINE",
"186 31 LINE",
"227 31 LINE",
"237 3 LINE",
"247 3 LINE",
"213 95 LINE"
);
},
{
closed = 1;
nodes = (
"275 95 LINE",
"275 3 LINE",
"316 3 LINE",
"316 11 LINE",
"284 11 LINE",
"284 95 LINE"
);
},
{
closed = 1;
nodes = (
"352 87 LINE",
"352 3 LINE",
"361 3 LINE",
"361 87 LINE",
"379 87 LINE",
"379 95 LINE",
"334 95 LINE",
"334 87 LINE"
);
},
{
closed = 1;
nodes = (
"525 3 LINE",
"532 3 LINE",
"532 87 LINE",
"544 87 LINE SMOOTH",
"563 87 OFFCURVE",
"572 80 OFFCURVE",
"572 67 CURVE SMOOTH",
"572 56 OFFCURVE",
"567 47 OFFCURVE",
"544 47 CURVE",
"572 3 LINE",
"583 3 LINE",
"560 39 LINE",
"572 42 OFFCURVE",
"585 52 OFFCURVE",
"583 67 CURVE SMOOTH",
"581 85 OFFCURVE",
"568 95 OFFCURVE",
"547 95 CURVE SMOOTH",
"525 95 LINE"
);
},
{
closed = 1;
nodes = (
"188 42 LINE",
"207 87 LINE",
"225 42 LINE"
);
},
{
closed = 1;
nodes = (
"411 69 OFFCURVE",
"425 87 OFFCURVE",
"446 87 CURVE SMOOTH",
"466 87 OFFCURVE",
"483 70 OFFCURVE",
"483 50 CURVE SMOOTH",
"483 25 OFFCURVE",
"466 12 OFFCURVE",
"446 12 CURVE SMOOTH",
"425 12 OFFCURVE",
"411 25 OFFCURVE",
"411 50 CURVE SMOOTH"
);
}
